<?xml version="1.0" encoding="UTF-8" standalone="no"?>
<svg
   xmlns:dc="http://purl.org/dc/elements/1.1/"
   xmlns:cc="http://creativecommons.org/ns#"
   xmlns:rdf="http://www.w3.org/1999/02/22-rdf-syntax-ns#"
   xmlns:svg="http://www.w3.org/2000/svg"
   xmlns="http://www.w3.org/2000/svg"
   xmlns:sodipodi="http://sodipodi.sourceforge.net/DTD/sodipodi-0.dtd"
   xmlns:inkscape="http://www.inkscape.org/namespaces/inkscape"
   version="1.1"
   id="Capa_1"
   x="0px"
   y="0px"
   viewBox="0 0 737.3 209.3"
   style="enable-background:new 0 0 737.3 209.3;"
   xml:space="preserve"
   sodipodi:docname="logo.svg"
   inkscape:version="1.0.2 (394de47547, 2021-03-26)"><metadata
   id="metadata19"><rdf:RDF><cc:Work
       rdf:about=""><dc:format>image/svg+xml</dc:format><dc:type
         rdf:resource="http://purl.org/dc/dcmitype/StillImage" /></cc:Work></rdf:RDF></metadata><defs
   id="defs17" /><sodipodi:namedview
   pagecolor="#ffffff"
   bordercolor="#666666"
   borderopacity="1"
   objecttolerance="10"
   gridtolerance="10"
   guidetolerance="10"
   inkscape:pageopacity="0"
   inkscape:pageshadow="2"
   inkscape:window-width="1656"
   inkscape:window-height="899"
   id="namedview15"
   showgrid="false"
   inkscape:zoom="1.7848908"
   inkscape:cx="368.64999"
   inkscape:cy="104.65"
   inkscape:window-x="0"
   inkscape:window-y="27"
   inkscape:window-maximized="0"
   inkscape:current-layer="Capa_1" />
<style
   type="text/css"
   id="style2">
	.st0{fill:none;}
	.st1{fill:#FFFFFF;}
	.st2{font-family:'MeriendaOne-Regular';}
	.st3{font-size:73px;}
</style>
<rect
   x="139.64"
   y="93.35"
   class="st0"
   width="737.39"
   height="74.39"
   id="rect4" />
<text
   transform="matrix(1 0 0 1 139.6368 163.2067)"
   class="st1 st2 st3"
   id="text6"
   style="fill:#000000;">Cultiva tu hongo</text>
<g
   id="g12"
   style="fill:#000000">
	<path
   class="st1"
   d="M99.98,93.47c1.89-0.51,3.04-0.51,3.69,1.45c1.39,4.19,4.01,7.52,7.55,10.19c2.05,1.55,2.66,3.7,0.47,5.42   c-8.61,6.78-8.42,15.7-6.78,25.25c2.03,11.89,3.24,23.82,7.48,35.39c2.55,6.95,3.41,14.89,2.62,22.66   c-0.76,7.47-4.27,11.26-11.49,13.57c-7.4,2.37-14.85,2.09-22.32,1.46c-8.29-0.7-13.8-6.63-14.56-15.21   c-0.54-6.13,0.27-12.21,0.91-18.31c1.83-17.55,2.81-35.15,2.71-52.79c-0.02-3.11,0.05-5.99,4.48-5.43c-2-0.57-4.01-1.11-6-1.73   c-3.8-1.17-5.31-4.34-3.21-7.7c2.31-3.71,3.14-7.93,4.85-11.82c0.87-1.99-0.84-3.69-0.82-5.65c0.14-9.58-1.72-18.79-4.81-27.88   c-2.14-6.3-0.95-8.83,5.12-11.29c10.21-4.15,20.57-4.59,30.66,0.66c4.14,2.15,5.91,5.3,4.78,10.22   c-1.82,7.94-1.96,16.11-2.29,24.22C102.9,88.93,103.16,91.74,99.98,93.47z"
   id="path8"
   style="fill:#000000" />
	<path
   class="st1"
   d="M99.75,40.38c-11.98,0-23.96-0.27-35.93,0.06c-18.14,0.5-36.17,1.99-53.15,9.31c-3.42,1.47-6.41,3.3-6.67,7.4   c-0.27,4.28,2.55,6.83,5.9,8.6c11.67,6.2,24.34,9.19,37.32,10.99c5.77,0.8,11.59,1.19,17.39,1.81c1.15,0.12,2.85-0.11,2.86,1.57   c0.02,2.07-1.89,1.72-3.13,1.65c-13.67-0.75-27.23-2.3-40.28-6.65c-4.93-1.64-9.93-3.15-14.62-5.54   c-11.99-6.11-11.67-18.55-3.9-26.94c4.11-4.44,9.2-7.69,14.22-10.91C37.2,20.53,55.19,10.3,74.43,2.39   c8.07-3.32,15.89-3.14,24.06,0.33c19.24,8.18,37.87,17.53,55.92,28.05c5.17,3.01,10.36,6.02,13.96,11.03   c6.73,9.36,4.56,19.23-5.33,25.06c-12.66,7.46-26.84,9.26-40.98,11.26c-4.71,0.67-9.43,1.24-14.15,1.74   c-1.11,0.12-2.79,0.44-2.98-1.27c-0.19-1.69,1.41-1.71,2.59-1.89c10.31-1.54,20.65-2.93,30.94-4.62c8.7-1.43,17-4.14,24.36-9.19   c3.6-2.47,5.86-5.77,6.04-10.31c0.25-6.45-2.03-9.51-8.4-10.37C140.28,39.5,120,40.5,99.75,40.38z M65.99,31.12   c4.93-0.04,9.29-2.33,9.27-4.74c-0.03-2.42-4.32-5.37-7.74-5.33c-3.02,0.04-6.03,3.37-5.82,6.54   C61.88,30.4,63.89,30.98,65.99,31.12z M22,40.78c4.24-0.27,6.87-3.23,9.85-5.57c1.01-0.79,1.77-1.83,1.13-3.18   c-0.68-1.43-2.05-1.8-3.49-1.64c-4.43,0.5-7.71,2.99-9.95,6.62C18.11,39.36,19.38,40.76,22,40.78z"
   id="path10"
   style="fill:#000000" />
</g>
</svg>
