<?xml version="1.0" encoding="utf-8"?>
<!-- Generator: Adobe Illustrator 23.0.2, SVG Export Plug-In . SVG Version: 6.00 Build 0)  -->
<svg version="1.1" id="Capa_1" xmlns="http://www.w3.org/2000/svg" xmlns:xlink="http://www.w3.org/1999/xlink" x="0px" y="0px"
	 viewBox="0 0 366.7 122" style="enable-background:new 0 0 366.7 122;" xml:space="preserve">
<style type="text/css">
	.st0{fill:#ADADAD;}
</style>
<g>
	
		<image style="overflow:visible;opacity:0.75;enable-background:new    ;" width="1558" height="521" xlink:href="42E4B1DC.png"  transform="matrix(0.2377 0 0 0.2377 -1.8058 -2.28)">
	</image>
	<g>
		<g>
			<g>
				<path class="st0" d="M83.5,80.7c0.9,0.2,1.3,0.6,1.3,1.3c-0.9,1.6-2,2.9-3.3,3.9s-2.5,1.7-3.6,2c-1.1,0.3-2.3,0.5-3.5,0.5
					c-2.8,0-5.1-1.1-6.9-3.1c-1.9-2.1-2.8-5.1-2.8-9.2c0-4.5,1.2-8.3,3.5-11.4c1.1-1.5,2.6-2.7,4.4-3.6c1.8-0.9,3.8-1.3,6.2-1.3
					s4.1,0.6,5.3,1.9c1.2,1.3,1.8,2.7,1.8,4.4s-0.5,3.1-1.4,4.1c-0.9,1.1-2.1,1.6-3.6,1.6c-0.5,0-1.1-0.1-1.8-0.3
					c0.5-0.6,0.9-1.5,1.3-2.6s0.6-2.2,0.6-3.2s-0.2-1.8-0.7-2.4c-0.5-0.6-1.2-0.9-2.2-0.9c-1.5,0-2.9,0.7-4.2,2.1s-2.2,3.2-2.8,5.2
					s-0.9,4.2-0.9,6.4c0,3,0.6,5.2,1.8,6.8c1.2,1.5,2.7,2.3,4.5,2.3c1.1,0,2.3-0.4,3.6-1.2C81.2,83.2,82.4,82.1,83.5,80.7z"/>
				<path class="st0" d="M100.8,67.7c0.7-0.1,1.2-0.1,1.5-0.1c1.2,0,2.1,0.2,2.8,0.7c0.6,0.4,0.9,1.3,0.9,2.4c0,0.4-0.2,2-0.7,4.9
					c-0.4,2.9-0.7,5.4-0.7,7.4s0.2,3.9,0.7,5.5c-1.8-0.6-3-1.3-3.6-2.4s-1-2.3-1-3.8c0-0.6,0.1-1.9,0.4-3.9
					c-0.7,2.7-1.8,4.9-3.3,6.7c-1.5,1.8-2.9,2.7-4.2,2.7c-2.7,0-4-1.9-4-5.8c0-1.3,0.2-3.1,0.6-5.4c0.4-2.3,0.6-4,0.6-5.2
					s-0.2-2.4-0.5-3.6c1.9,0,3.3,0.3,4.2,0.8c0.9,0.5,1.3,1.5,1.3,3c0,0.8-0.2,2.4-0.7,4.7c-0.5,2.3-0.7,4.1-0.7,5.3
					c0,1.7,0.5,2.6,1.4,2.6c0.5,0,1-0.3,1.6-1c0.6-0.6,1.2-1.5,1.8-2.6c0.6-1.1,1-2.4,1.4-4c0.4-1.6,0.6-3.2,0.6-4.8
					S101,68.9,100.8,67.7z"/>
				<path class="st0" d="M110.7,85.7c-0.1-0.4-0.1-1.1-0.1-2s0.4-4.5,1.2-10.7s1.2-10.5,1.2-12.8s-0.1-3.8-0.4-4.5
					c1.8,0.5,2.9,1.2,3.6,2.1c0.6,0.9,1,2.3,1,4c0,1-0.3,4.3-1,10s-1,10.2-1,13.6c0,0.8,0.1,1.8,0.1,3.1c-2.1-0.1-3.4-0.6-3.9-1.4
					C110.9,86.5,110.8,86.1,110.7,85.7z"/>
				<path class="st0" d="M128.3,71.5c-0.1,0.8-0.4,2.3-0.7,4.4c-0.8,4.4-1.2,7.7-1.2,9.8c0,2.1,0.2,3.5,0.5,4.3
					c-1.8-0.5-3-1.2-3.7-2.2c-0.7-1-1-2.3-1-4.1c0-1.6,0.2-3.7,0.7-6.4c0.5-2.7,0.8-4.5,0.9-5.5c-1.2,0.2-2.5,0.6-3.9,1.2
					c-0.1-0.5-0.1-0.9-0.1-1.2c0-1.2,0.4-2.1,1.1-2.5s1.8-0.7,3.2-0.7c0.2-1.8,0.2-3,0.2-3.8c0-0.8,0-1.4,0-1.9s0-0.9,0-1.2
					c1.5,0.2,2.7,0.6,3.3,1.4c0.7,0.8,1.1,1.8,1.1,3.2c0,0.6-0.1,1.3-0.2,2.3c2-0.1,3.4-0.4,4.3-1.2c0.1,0.5,0.1,0.8,0.1,1.1
					c0,1.1-0.2,1.9-0.6,2.3c-0.4,0.4-1.1,0.7-2,0.7S128.8,71.5,128.3,71.5z"/>
				<path class="st0" d="M140.3,76c-0.6,3.3-0.9,6.1-0.9,8.2c0,2.2,0.1,3.5,0.4,4.2c-1.8-0.5-3-1.2-3.7-2.1s-0.9-2.3-0.9-4.1
					c0-1,0.2-2.8,0.6-5.3s0.6-4.6,0.6-6s-0.1-2.5-0.2-3.3c0.5-0.1,1-0.1,1.4-0.1c1.4,0,2.3,0.2,2.8,0.7s0.8,1.2,0.8,2.3
					C141.1,70.9,140.9,72.7,140.3,76z M141.7,64.5c-0.6,0.1-1.2,0.1-1.7,0.1c-2.4,0-3.6-0.8-3.6-2.5c0-0.6,0.2-1.4,0.5-2.5
					c0.6-0.1,1.2-0.1,1.7-0.1c2.4,0,3.6,0.8,3.6,2.5C142.2,62.6,142,63.4,141.7,64.5z"/>
				<path class="st0" d="M152.7,87.9c-0.8,0.3-1.5,0.5-2.3,0.5s-1.3-0.2-1.4-0.5c-0.4-1.5-0.8-3.7-1.3-6.7c-0.5-3-1-5.6-1.5-7.8
					c-0.5-2.2-1.1-3.9-1.8-5c1.3-0.6,2.3-0.9,3.1-0.9s1.4,0.2,1.8,0.5s0.7,1,1,2.1s0.5,1.9,0.6,2.6c0.3,2.2,0.5,3.5,0.5,3.7
					c0,0.3,0.1,1.3,0.3,3.1s0.3,3,0.4,3.6c4.1-8,6.2-13.4,6.2-16.1c1.9,1,2.9,2,2.9,3.2c0,0.9-0.5,2.3-1.4,4.1s-2.2,4-3.6,6.6
					C154.5,83.5,153.4,85.8,152.7,87.9z"/>
				<path class="st0" d="M167.9,81.3c0,1.1,0.2,2,0.6,2.7c0.4,0.7,1,1,1.7,1c1.1,0,2.1-0.6,3.1-1.9s1.8-2.9,2.4-4.9s0.9-3.9,0.9-5.7
					s-0.1-3.3-0.2-4.4c0.7-0.1,1.2-0.1,1.5-0.1c1.2,0,2.1,0.2,2.7,0.7s0.9,1.2,0.9,2.4c0,0.4-0.3,2.2-0.8,5.4s-0.8,5.7-0.8,7.6
					s0.4,3.6,1.1,5c-1.8-0.3-3-0.9-3.8-1.9c-0.8-1-1.2-2.4-1.2-4.3c0-0.3,0.1-0.9,0.1-1.9c-0.6,2.2-1.8,4-3.4,5.3
					c-1.6,1.3-3.2,2-4.7,2s-2.8-0.6-3.7-1.7c-0.9-1.2-1.4-2.8-1.4-4.9s0.4-4.2,1.1-6.2c0.8-2,1.9-3.7,3.4-5.1s3.2-2.1,5.1-2.1
					c1.1,0,2.2,0.3,3.3,0.8c-2.4,0.8-4.2,2.5-5.6,4.9C168.6,76.5,167.9,78.9,167.9,81.3z"/>
				<path class="st0" d="M204.7,71.5c-0.1,0.8-0.4,2.3-0.7,4.4c-0.8,4.4-1.2,7.7-1.2,9.8c0,2.1,0.2,3.5,0.5,4.3
					c-1.8-0.5-3-1.2-3.7-2.2c-0.7-1-1-2.3-1-4.1c0-1.6,0.2-3.7,0.7-6.4c0.5-2.7,0.8-4.5,0.9-5.5c-1.2,0.2-2.5,0.6-3.9,1.2
					c-0.1-0.5-0.1-0.9-0.1-1.2c0-1.2,0.4-2.1,1.1-2.5s1.8-0.7,3.2-0.7c0.2-1.8,0.2-3,0.2-3.8c0-0.8,0-1.4,0-1.9s0-0.9,0-1.2
					c1.5,0.2,2.6,0.6,3.4,1.4c0.7,0.8,1.1,1.8,1.1,3.2c0,0.6-0.1,1.3-0.2,2.3c2-0.1,3.4-0.4,4.3-1.2c0.1,0.5,0.1,0.8,0.1,1.1
					c0,1.1-0.2,1.9-0.6,2.3c-0.4,0.4-1.1,0.7-2,0.7S205.2,71.5,204.7,71.5z"/>
				<path class="st0" d="M222.3,67.7c0.7-0.1,1.2-0.1,1.5-0.1c1.2,0,2.1,0.2,2.8,0.7c0.6,0.4,0.9,1.3,0.9,2.4c0,0.4-0.2,2-0.7,4.9
					c-0.4,2.9-0.7,5.4-0.7,7.4s0.2,3.9,0.7,5.5c-1.8-0.6-3-1.3-3.6-2.4s-1-2.3-1-3.8c0-0.6,0.1-1.9,0.4-3.9
					c-0.7,2.7-1.8,4.9-3.3,6.7c-1.5,1.8-2.9,2.7-4.2,2.7c-2.7,0-4-1.9-4-5.8c0-1.3,0.2-3.1,0.6-5.4c0.4-2.3,0.6-4,0.6-5.2
					s-0.2-2.4-0.5-3.6c1.9,0,3.3,0.3,4.2,0.8c0.9,0.5,1.3,1.5,1.3,3c0,0.8-0.2,2.4-0.7,4.7c-0.5,2.3-0.7,4.1-0.7,5.3
					c0,1.7,0.5,2.6,1.4,2.6c0.5,0,1-0.3,1.6-1c0.6-0.6,1.2-1.5,1.8-2.6c0.6-1.1,1-2.4,1.4-4c0.4-1.6,0.6-3.2,0.6-4.8
					S222.4,68.9,222.3,67.7z"/>
				<path class="st0" d="M248.5,77.1c0.8-2.6,2-4.8,3.6-6.7s3.1-2.7,4.6-2.7s2.4,0.4,3,1.3s0.9,2,0.9,3.5s-0.2,3.5-0.7,6.1
					s-0.7,4.5-0.7,5.7s0.1,2.1,0.5,2.6c0.3,0.6,0.8,1,1.5,1.4c-0.3,0-0.7,0-1.3,0c-2,0-3.4-0.3-4.2-0.9c-0.8-0.6-1.2-1.7-1.2-3.2
					c0-0.9,0.2-2.5,0.7-5c0.5-2.5,0.7-4.4,0.7-5.6c0-1.5-0.5-2.3-1.4-2.3c-0.6,0-1.2,0.3-1.9,0.9c-0.7,0.6-1.3,1.5-1.9,2.6
					c-0.6,1.1-1.1,2.5-1.6,4.2s-0.6,3.4-0.6,5.1s0.1,2.9,0.2,3.8c-0.8,0.1-1.2,0.1-1.5,0.1c-1.3,0-2.3-0.2-2.9-0.7s-0.9-1.2-0.9-2.2
					s0.2-2.9,0.6-5.7c1.3-8.7,1.9-15.2,1.9-19.7c0-2-0.1-3.4-0.4-4.1c1.8,0.5,2.9,1.2,3.6,2.1c0.6,0.9,1,2.3,1,4
					c0,1.2-0.2,3.6-0.7,7.3S248.7,75.4,248.5,77.1z"/>
				<path class="st0" d="M272.5,67.3c0.3,0,0.5,0.1,0.7,0.2c0.2,0.2,0.3,0.3,0.3,0.5c-2.4,1.6-3.8,3.9-4.2,6.8
					c0.5-1.3,1.1-2.4,1.8-3.4c0.7-0.9,1.5-1.7,2.2-2.2c1.5-0.9,2.9-1.4,4.3-1.4s2.6,0.7,3.6,2.1c1,1.4,1.5,3.2,1.5,5.5
					c0,2.6-0.5,5-1.6,7.1c-1.2,2.4-2.8,4.1-5,5.1c-1.2,0.5-2.5,0.8-4,0.8c-2,0-3.8-0.8-5.3-2.4s-2.3-3.8-2.3-6.8s0.7-5.5,2.2-7.8
					C268.3,69.3,270.2,67.8,272.5,67.3z M275.5,70.4c-1.5,0-2.9,1-4,3.1c-1.2,2-1.8,4.1-1.8,6.1c0,4.2,1.1,6.3,3.3,6.3
					c1.6,0,2.8-1,3.8-3.1c1-2,1.5-4.3,1.5-6.9C278.2,72.3,277.3,70.4,275.5,70.4z"/>
				<path class="st0" d="M300.1,67.7c1.4,0,2.4,0.4,3,1.3c0.6,0.8,0.9,2,0.9,3.5s-0.2,3.5-0.7,6.1s-0.7,4.5-0.7,5.7s0.1,2.1,0.5,2.6
					c0.3,0.6,0.8,1,1.5,1.4c-0.3,0-0.7,0-1.3,0c-2,0-3.4-0.3-4.2-0.9c-0.8-0.6-1.2-1.7-1.2-3.2c0-0.9,0.2-2.5,0.7-5
					c0.5-2.5,0.7-4.4,0.7-5.6c0-1.5-0.5-2.3-1.4-2.3c-0.5,0-1.1,0.3-1.8,0.9c-0.7,0.6-1.3,1.5-2,2.6c-0.6,1.1-1.1,2.5-1.6,4.2
					s-0.6,3.4-0.6,5.1s0.1,2.9,0.2,3.8c-0.8,0.1-1.2,0.1-1.5,0.1c-1.3,0-2.3-0.2-2.9-0.7s-0.9-1.2-0.9-2.3c0-0.5,0.3-2.3,0.7-5.4
					c0.5-3.1,0.7-5.6,0.7-7.4s-0.2-3.6-0.6-5.1c1.7,0.5,2.9,1.3,3.6,2.3c0.7,1,1,2.1,1,3.4s-0.1,2.7-0.4,4.4c0.8-2.6,2-4.8,3.6-6.6
					S298.7,67.7,300.1,67.7z"/>
				<path class="st0" d="M319.3,68.1c0.4,0,0.8,0,1,0.1c0.6,0.1,0.9,0.6,1,1.3c-2.5,0.5-4.6,1.9-6.1,4.1s-2.3,4.5-2.3,6.9
					c0,2.8,0.9,4.2,2.5,4.2c1,0,1.9-0.6,2.8-1.7c1.4-2,2.5-5.2,3-9.5c0.4-3.4,1.3-5.6,2.5-6.6c0.6-0.5,1.3-0.9,2.2-1.2
					c-0.3,2.5-0.5,4.3-0.5,5.6c0,9.3-1,16.3-3,21s-5.2,7-9.7,7c-1.8,0-3.2-0.5-4.3-1.4s-1.5-2-1.5-3.2s0.4-2.1,1.1-2.8
					c0.7-0.7,1.7-1.1,3-1.1c0.5,0,1.1,0.1,1.6,0.3c-0.9,0.6-1.3,1.5-1.3,2.7c0,0.8,0.2,1.5,0.7,2.1c0.5,0.6,1.1,0.9,1.8,0.9
					s1.3-0.2,1.9-0.4s1.1-0.8,1.6-1.6c0.6-0.8,1-1.7,1.5-2.8c1-2.6,1.5-6.1,1.6-10.6c-0.7,2-1.7,3.6-3.1,4.8s-2.8,1.8-4.2,1.8
					c-1.8,0-3.2-0.7-4.1-2s-1.4-3.1-1.4-5.2c0-2.5,0.6-4.8,1.8-6.9c1.3-2.4,3.2-4.1,5.5-5.1C316.3,68.4,317.7,68.1,319.3,68.1z"/>
				<path class="st0" d="M337.6,67.3c0.3,0,0.5,0.1,0.7,0.2c0.2,0.2,0.3,0.3,0.3,0.5c-2.4,1.6-3.8,3.9-4.2,6.8
					c0.5-1.3,1.1-2.4,1.8-3.4c0.7-0.9,1.5-1.7,2.2-2.2c1.5-0.9,2.9-1.4,4.3-1.4s2.6,0.7,3.6,2.1c1,1.4,1.5,3.2,1.5,5.5
					c0,2.6-0.5,5-1.6,7.1c-1.2,2.4-2.8,4.1-5,5.1c-1.2,0.5-2.5,0.8-4,0.8c-2,0-3.8-0.8-5.3-2.4s-2.3-3.8-2.3-6.8s0.7-5.5,2.2-7.8
					C333.3,69.3,335.2,67.8,337.6,67.3z M340.5,70.4c-1.5,0-2.9,1-4,3.1c-1.2,2-1.8,4.1-1.8,6.1c0,4.2,1.1,6.3,3.3,6.3
					c1.6,0,2.8-1,3.8-3.1c1-2,1.5-4.3,1.5-6.9C343.3,72.3,342.3,70.4,340.5,70.4z"/>
			</g>
			<g>
				<path class="st0" d="M44.4,42.7c0.7-0.2,1.2-0.2,1.5,0.6c0.5,1.7,1.6,3,3,4c0.8,0.6,1,1.5,0.2,2.1c-3.4,2.7-3.3,6.2-2.7,9.9
					c0.8,4.7,1.3,9.4,2.9,13.9c1,2.7,1.3,5.9,1,8.9c-0.3,2.9-1.7,4.4-4.5,5.3c-2.9,0.9-5.8,0.8-8.8,0.6c-3.3-0.3-5.4-2.6-5.7-6
					c-0.2-2.4,0.1-4.8,0.4-7.2c0.7-6.9,1.1-13.8,1.1-20.8c0-1.2,0-2.4,1.8-2.1c-0.8-0.2-1.6-0.4-2.4-0.7c-1.5-0.5-2.1-1.7-1.3-3
					c0.9-1.5,1.2-3.1,1.9-4.7c0.3-0.8-0.3-1.5-0.3-2.2c0-3.8-0.7-7.4-1.9-11c-0.8-2.5-0.4-3.5,2-4.5c4-1.6,8.1-1.8,12.1,0.3
					c1.6,0.9,2.3,2.1,1.9,4c-0.7,3.1-0.8,6.3-0.9,9.5C45.5,40.9,45.6,42,44.4,42.7z"/>
				<path class="st0" d="M44.3,21.8c-4.7,0-9.4-0.1-14.1,0C23,22,15.9,22.6,9.2,25.5c-1.3,0.6-2.5,1.3-2.6,2.9
					c-0.1,1.7,1,2.7,2.3,3.4c4.6,2.4,9.6,3.6,14.7,4.3c2.3,0.3,4.6,0.5,6.8,0.7c0.5,0,1.1,0,1.1,0.6c0,0.8-0.7,0.7-1.2,0.7
					c-5.4-0.3-10.7-0.9-15.9-2.6c-1.9-0.7-3.9-1.2-5.8-2.2C4,30.9,4.2,26,7.2,22.7c1.6-1.8,3.6-3,5.6-4.3C19.7,14,26.8,9.9,34.3,6.8
					c3.2-1.3,6.3-1.2,9.5,0.1c7.6,3.2,14.9,6.9,22,11c2,1.2,4.1,2.4,5.5,4.3c2.7,3.7,1.8,7.6-2.1,9.9c-5,2.9-10.6,3.7-16.1,4.4
					c-1.8,0.3-3.7,0.5-5.6,0.7c-0.4,0-1.1,0.2-1.2-0.5s0.5-0.7,1-0.7c4.1-0.6,8.1-1.2,12.2-1.8c3.4-0.6,6.7-1.6,9.6-3.6
					c1.4-1,2.3-2.3,2.4-4.1c0.1-2.5-0.8-3.7-3.3-4.1C60.3,21.4,52.3,21.8,44.3,21.8z M31,18.1c1.9,0,3.7-0.9,3.6-1.9
					c0-0.9-1.7-2.1-3-2.1c-1.2,0-2.4,1.3-2.3,2.6C29.4,17.8,30.2,18.1,31,18.1z M13.7,21.9c1.7-0.1,2.7-1.3,3.9-2.2
					c0.4-0.3,0.7-0.7,0.5-1.3c-0.3-0.6-0.8-0.7-1.4-0.6c-1.7,0.2-3,1.2-3.9,2.6C12.2,21.4,12.7,21.9,13.7,21.9z"/>
			</g>
		</g>
	</g>
</g>
</svg>
